<?xml version="1.0" encoding="utf-8"?>
<!-- Generator: Adobe Illustrator 25.2.3, SVG Export Plug-In . SVG Version: 6.00 Build 0)  -->
<svg version="1.1" xmlns="http://www.w3.org/2000/svg" xmlns:xlink="http://www.w3.org/1999/xlink" x="0px" y="0px"
	 viewBox="0 0 600 400" style="enable-background:new 0 0 600 400;" xml:space="preserve">
<style type="text/css">
	.st0{fill:#FFFFFF;}
	.st1{fill:none;stroke:#7D7D7D;stroke-width:1.5;stroke-miterlimit:10;}
	.st2{fill:#FFFFFF;stroke:#7D7D7D;stroke-width:4.1237;stroke-miterlimit:10;}
	.st3{fill:#FFFFFF;stroke:#7D7D7D;stroke-width:1.5;stroke-miterlimit:10;}
	.st4{font-family: sans-serif; font-weight: 600;}
	.st5{font-size:20px;}
</style>
<g id="Layer_1">
	<g>
		<path class="st0" d="M15,399.4c-7.9,0-14.4-6.4-14.4-14.4V15C0.6,7.1,7.1,0.6,15,0.6h570c7.9,0,14.4,6.4,14.4,14.4v370
			c0,7.9-6.4,14.4-14.4,14.4H15z"/>
		<path d="M585,1.2c7.6,0,13.8,6.2,13.8,13.8v370c0,7.6-6.2,13.8-13.8,13.8H15c-7.6,0-13.8-6.2-13.8-13.8V15C1.2,7.4,7.4,1.2,15,1.2
			H585 M585,0H15C6.7,0,0,6.7,0,15v370c0,8.3,6.7,15,15,15h570c8.3,0,15-6.7,15-15V15C600,6.7,593.3,0,585,0L585,0z"/>
	</g>
	<line class="st1" x1="114" y1="305" x2="288" y2="184"/>
	<line class="st1" x1="289" y1="184" x2="404" y2="61"/>
	<line class="st1" x1="289" y1="184" x2="521" y2="146"/>
	<line class="st1" x1="291" y1="182" x2="476" y2="263"/>
	<ellipse class="st2" cx="114" cy="301" rx="75" ry="60"/>
	<ellipse class="st3" cx="289" cy="184" rx="67" ry="52"/>
	<ellipse class="st3" cx="476" cy="263" rx="64" ry="49"/>
	<ellipse class="st3" cx="521" cy="146" rx="64" ry="49"/>
	<ellipse class="st3" cx="404" cy="61" rx="64" ry="49"/>
</g>
<g id="Layer_2">
	<text transform="matrix(1 0 0 1 53.3311 305.6151)" class="st4 st5">architecture</text>
	<text transform="matrix(1 0 0 1 238.4012 188.6149)" class="st4 st5">structures</text>
	<text transform="matrix(1 0 0 1 421.8409 269.6147)" class="st4 st5">Colosseum</text>
	<text transform="matrix(1 0 0 1 484.8004 152.6147)" class="st4 st5">pagoda</text>
	<text transform="matrix(1 0 0 1 372.7609 67.6146)" class="st4 st5">house</text>
</g>
</svg>
