<?xml version="1.0" encoding="utf-8"?>

<svg version="1.1"
	xmlns="http://www.w3.org/2000/svg"
	xmlns:bx="https://boxy-svg.com" viewBox="0 0 580.967 454.157">
	<defs></defs>
	<g id="Layer_1" transform="matrix(1.042124, 0, 0, 0.707937, -30.439873, -86.534027)" style="">
		<g>
			<g>
				<path class="st5" d="M 553.91 740.34 L 58.09 740.34 C 48.43 740.34 43.958 726.87 43.958 717.21 L 44.252 164.971 C 44.252 155.311 48.43 142.16 58.09 142.16 L 553.91 142.16 C 563.57 142.16 571.4 149.99 571.4 159.65 L 570.279 718.095 C 570.279 727.755 563.57 740.34 553.91 740.34 Z" style="fill: none; stroke: rgb(0, 0, 0); stroke-miterlimit: 10; stroke-width: 1.0616px;"></path>
			</g>
		</g>
	</g>
	<g id="Layer_2" transform="matrix(1.036456, 0, 0, 0.705493, -27.052935, -85.464043)" style="">
		<line class="st7" x1="306" y1="142.16" x2="306" y2="740.34" style="fill: rgb(255, 255, 255); stroke: rgb(0, 0, 0); stroke-miterlimit: 10; stroke-width: 1.0616px;"></line>
		<line class="st7" x1="40.6" y1="441.25" x2="571.4" y2="441.25" style="fill: rgb(255, 255, 255); stroke: rgb(0, 0, 0); stroke-miterlimit: 10; stroke-width: 1.0616px;"></line>
		<circle class="st8" cx="306" cy="451.25" r="85.43" style="display: none; fill: rgb(255, 255, 255); perspective-origin: 50% 50%; stroke: rgb(0, 0, 0); stroke-miterlimit: 10; stroke-width: 1.1312px;"></circle>
	</g>
	<circle style="fill:#FFFFFF;stroke: rgb(0, 0, 0);" transform="matrix(1.040713, 0, 0, 1.017651, -107.000923, -110.821808)" cx="380.65" cy="329.699" r="81.701"></circle>
	<text style="fill: rgb(51, 51, 51); font-family:sans-serif; font-size: 16px; font-weight: 700; white-space: pre;" transform="matrix(1, 0, 0, 1, 0, 5)">
		<tspan x="29.386" y="47.132">Definition: ancestors: family</tspan>
		<tspan x="29.386" dy="1.2em">members who lived long ago</tspan>
	</text>
	<text style="fill: rgb(51, 51, 51); font-family:sans-serif; font-size: 18px; font-weight: 700; white-space: pre;" x="245.397" y="233.513">ancestors</text>
	<text style="fill: rgb(51, 51, 51); font-family:sans-serif; font-size: 16px; font-weight: 700; white-space: pre;" transform="matrix(1, 0, 0, 1, -37.422329, 2.536905)">
		<tspan x="344.107" y="51.056">Sentence: My ancestors owned </tspan>
		<tspan x="344.107" dy="1.2em">a farm many years ago.</tspan>
	</text>
	<text style="fill: rgb(51, 51, 51); font-family:sans-serif; font-size: 16px; font-weight: 700; white-space: pre;" transform="matrix(1, 0, 0, 1, -185, 60)">
		<tspan x="214.554" y="318">Synonym / Antonym:</tspan>
		<tspan x="214.554" dy="1.2em">synonym - relatives</tspan>
	</text>
	<text style="fill: rgb(51, 51, 51); font-family:sans-serif; font-size: 16px; font-weight: 700; white-space: pre;" transform="matrix(1, 0, 0, 1, 4, 30)">
		<tspan x="304.111" y="350.208">Example:</tspan>
		<tspan x="304.111" dy="1.2em">my great-grandparents</tspan>
	</text>

</svg>
